<svg width="347" height="179" viewBox="0 0 347 179" fill="none" xmlns="http://www.w3.org/2000/svg">
<path d="M316.04 174C319.332 174 322.012 171.33 321.881 168.041C321.179 150.508 317.385 133.221 310.658 116.98C303.17 98.9027 292.195 82.477 278.359 68.6411C264.523 54.8052 248.097 43.8299 230.02 36.3419C211.942 28.854 192.567 25 173 25C153.433 25 134.058 28.854 115.98 36.342C97.9026 43.8299 81.477 54.8052 67.6411 68.6411C53.8052 82.477 42.8299 98.9027 35.3419 116.98C28.615 133.221 24.8209 150.508 24.1192 168.041C23.9876 171.33 26.6684 174 29.96 174C33.2516 174 35.9065 171.33 36.0495 168.042C36.7442 152.075 40.2267 136.336 46.3546 121.542C53.2435 104.91 63.3407 89.7989 76.0698 77.0698C88.7989 64.3408 103.91 54.2435 120.542 47.3546C137.173 40.4657 154.998 36.92 173 36.92C191.002 36.92 208.827 40.4657 225.458 47.3546C242.09 54.2435 257.201 64.3407 269.93 77.0698C282.659 89.7989 292.757 104.91 299.645 121.542C305.773 136.336 309.256 152.075 309.95 168.042C310.094 171.33 312.748 174 316.04 174Z" fill="black" fill-opacity="0.08"/>
<g filter="url(#filter0_i_14_32)">
<path d="M100.78 50.5304C99.1182 47.6892 95.4602 46.7231 92.6877 48.4973C72.5096 61.4096 55.7159 79.0151 43.7642 99.8441C31.8124 120.673 25.087 144.056 24.1212 167.992C23.9884 171.281 26.6684 173.952 29.96 173.953C33.2516 173.954 35.9074 171.285 36.0515 167.996C37.0095 146.141 43.1867 124.801 54.103 105.777C65.0193 86.7521 80.3262 70.6506 98.7115 58.7952C101.478 57.0113 102.442 53.3717 100.78 50.5304Z" fill="#1A932E"/>
</g>
<path d="M0.282799 162.289L14.0625 163.273" stroke="#060606" stroke-opacity="0.3" stroke-miterlimit="10"/>
<path d="M1.10611 153.56L14.8203 155.246" stroke="#060606" stroke-opacity="0.3" stroke-miterlimit="10"/>
<path d="M2.37766 144.884L15.9805 147.26" stroke="#060606" stroke-opacity="0.3" stroke-miterlimit="10"/>
<path d="M4.07468 136.281L17.543 139.357" stroke="#060606" stroke-opacity="0.3" stroke-miterlimit="10"/>
<path d="M6.21994 127.787L19.5195 131.529" stroke="#060606" stroke-opacity="0.3" stroke-miterlimit="10"/>
<path d="M8.79045 119.402L21.8867 123.82" stroke="#060606" stroke-opacity="0.3" stroke-miterlimit="10"/>
<path d="M11.7934 111.159L24.6289 116.242" stroke="#060606" stroke-opacity="0.3" stroke-miterlimit="10"/>
<path d="M15.2025 103.082L27.7773 108.818" stroke="#060606" stroke-opacity="0.3" stroke-miterlimit="10"/>
<path d="M19.0204 95.1924L31.2773 101.559" stroke="#060606" stroke-opacity="0.3" stroke-miterlimit="10"/>
<path d="M23.2401 87.5043L35.1562 94.4883" stroke="#060606" stroke-opacity="0.3" stroke-miterlimit="10"/>
<path d="M27.8381 80.0387L39.3906 87.6172" stroke="#060606" stroke-opacity="0.3" stroke-miterlimit="10"/>
<path d="M32.8102 72.8194L43.9648 80.9805" stroke="#060606" stroke-opacity="0.3" stroke-miterlimit="10"/>
<path d="M38.1486 65.8694L48.8711 74.5781" stroke="#060606" stroke-opacity="0.3" stroke-miterlimit="10"/>
<path d="M43.8417 59.1891L54.0977 68.4336" stroke="#060606" stroke-opacity="0.3" stroke-miterlimit="10"/>
<path d="M49.8546 52.8093L59.6328 62.5664" stroke="#060606" stroke-opacity="0.3" stroke-miterlimit="10"/>
<path d="M56.187 46.7459L65.4531 56.9922" stroke="#060606" stroke-opacity="0.3" stroke-miterlimit="10"/>
<path d="M62.8232 41.02L71.5547 51.7207" stroke="#060606" stroke-opacity="0.3" stroke-miterlimit="10"/>
<path d="M69.7439 35.6298L77.918 46.7617" stroke="#060606" stroke-opacity="0.3" stroke-miterlimit="10"/>
<path d="M92.0176 21.6764L98.4062 33.9277" stroke="#060606" stroke-opacity="0.3" stroke-miterlimit="10"/>
<path d="M99.8885 17.8044L105.641 30.3594" stroke="#060606" stroke-opacity="0.3" stroke-miterlimit="10"/>
<path d="M107.939 14.3384L113.043 27.1738" stroke="#060606" stroke-opacity="0.3" stroke-miterlimit="10"/>
<path d="M116.16 11.2781L120.605 24.3594" stroke="#060606" stroke-opacity="0.3" stroke-miterlimit="10"/>
<path d="M124.521 8.65463L128.297 21.9355" stroke="#060606" stroke-opacity="0.3" stroke-miterlimit="10"/>
<path d="M133.007 6.44884L136.102 19.9062" stroke="#060606" stroke-opacity="0.3" stroke-miterlimit="10"/>
<path d="M141.594 4.68009L143.996 18.2793" stroke="#060606" stroke-opacity="0.3" stroke-miterlimit="10"/>
<path d="M150.266 3.35217L151.965 17.0586" stroke="#060606" stroke-opacity="0.3" stroke-miterlimit="10"/>
<path d="M158.989 2.47084L159.996 16.25" stroke="#060606" stroke-opacity="0.3" stroke-miterlimit="10"/>
<path d="M167.742 2.02822L168.047 15.834" stroke="#060606" stroke-opacity="0.3" stroke-miterlimit="10"/>
<path d="M176.515 2.03557L176.106 15.8448" stroke="#060606" stroke-opacity="0.3" stroke-miterlimit="10"/>
<path d="M185.269 2.49198L184.158 16.2587" stroke="#060606" stroke-opacity="0.3" stroke-miterlimit="10"/>
<path d="M193.987 3.39697L192.186 17.0869" stroke="#060606" stroke-opacity="0.3" stroke-miterlimit="10"/>
<path d="M202.65 4.73708L200.16 18.3271" stroke="#060606" stroke-opacity="0.3" stroke-miterlimit="10"/>
<path d="M211.242 6.51586L208.051 19.9598" stroke="#060606" stroke-opacity="0.3" stroke-miterlimit="10"/>
<path d="M219.72 8.741L215.853 21.9931" stroke="#060606" stroke-opacity="0.3" stroke-miterlimit="10"/>
<path d="M228.085 11.3781L223.541 24.4269" stroke="#060606" stroke-opacity="0.3" stroke-miterlimit="10"/>
<path d="M236.294 14.4538L231.096 27.2535" stroke="#060606" stroke-opacity="0.3" stroke-miterlimit="10"/>
<path d="M244.345 17.939L238.494 30.455" stroke="#060606" stroke-opacity="0.3" stroke-miterlimit="10"/>
<path d="M252.197 21.8279L245.728 34.0261" stroke="#060606" stroke-opacity="0.3" stroke-miterlimit="10"/>
<path d="M259.85 26.1051L252.763 37.9625" stroke="#060606" stroke-opacity="0.3" stroke-miterlimit="10"/>
<path d="M281.356 41.2201L272.544 51.8608" stroke="#060606" stroke-opacity="0.3" stroke-miterlimit="10"/>
<path d="M287.979 46.9578L278.644 57.1322" stroke="#060606" stroke-opacity="0.3" stroke-miterlimit="10"/>
<path d="M294.298 53.0389L284.462 62.7241" stroke="#060606" stroke-opacity="0.3" stroke-miterlimit="10"/>
<path d="M300.304 59.4262L289.978 68.5994" stroke="#060606" stroke-opacity="0.3" stroke-miterlimit="10"/>
<path d="M305.986 66.11L295.205 74.7485" stroke="#060606" stroke-opacity="0.3" stroke-miterlimit="10"/>
<path d="M311.307 73.0763L300.108 81.146" stroke="#060606" stroke-opacity="0.3" stroke-miterlimit="10"/>
<path d="M316.266 80.3042L304.67 87.7938" stroke="#060606" stroke-opacity="0.3" stroke-miterlimit="10"/>
<path d="M320.857 87.7701L308.887 94.6684" stroke="#060606" stroke-opacity="0.3" stroke-miterlimit="10"/>
<path d="M325.065 95.4717L312.757 101.745" stroke="#060606" stroke-opacity="0.3" stroke-miterlimit="10"/>
<path d="M328.866 103.367L316.255 109.015" stroke="#060606" stroke-opacity="0.3" stroke-miterlimit="10"/>
<path d="M332.261 111.45L319.381 116.439" stroke="#060606" stroke-opacity="0.3" stroke-miterlimit="10"/>
<path d="M335.242 119.704L322.127 124.022" stroke="#060606" stroke-opacity="0.3" stroke-miterlimit="10"/>
<path d="M337.805 128.09L324.479 131.739" stroke="#060606" stroke-opacity="0.3" stroke-miterlimit="10"/>
<path d="M339.934 136.586L326.443 139.565" stroke="#060606" stroke-opacity="0.3" stroke-miterlimit="10"/>
<path d="M341.617 145.193L327.996 147.479" stroke="#060606" stroke-opacity="0.3" stroke-miterlimit="10"/>
<path d="M342.867 153.875L329.151 155.459" stroke="#060606" stroke-opacity="0.3" stroke-miterlimit="10"/>
<path d="M343.68 162.599L329.89 163.491" stroke="#060606" stroke-opacity="0.3" stroke-miterlimit="10"/>
<path d="M5.992 174.484L5.608 174.484C3.22 174.484 1.528 173.188 1.528 171.292C1.528 169.408 3.22 168.112 5.608 168.112L5.992 168.112C8.5 168.112 10.072 169.408 10.072 171.292C10.072 173.188 8.5 174.484 5.992 174.484ZM5.956 169.132L5.644 169.132C3.652 169.132 2.452 169.996 2.452 171.292C2.452 172.6 3.652 173.464 5.644 173.464L5.956 173.464C7.948 173.464 9.148 172.6 9.148 171.292C9.148 169.996 7.948 169.132 5.956 169.132Z" fill="black"/>
<path d="M330.004 170.512V169.6H330.988V178H329.98V171.976C329.86 172.084 329.668 172.132 329.404 172.132H328.048V171.232H329.416C329.812 171.232 330.004 170.932 330.004 170.512ZM332.456 173.992V173.608C332.456 171.22 333.752 169.528 335.648 169.528C337.532 169.528 338.828 171.22 338.828 173.608V173.992C338.828 176.5 337.532 178.072 335.648 178.072C333.752 178.072 332.456 176.5 332.456 173.992ZM337.808 173.956V173.644C337.808 171.652 336.944 170.452 335.648 170.452C334.34 170.452 333.476 171.652 333.476 173.644V173.956C333.476 175.948 334.34 177.148 335.648 177.148C336.944 177.148 337.808 175.948 337.808 173.956ZM339.983 173.992V173.608C339.983 171.22 341.279 169.528 343.175 169.528C345.059 169.528 346.355 171.22 346.355 173.608V173.992C346.355 176.5 345.059 178.072 343.175 178.072C341.279 178.072 339.983 176.5 339.983 173.992ZM345.335 173.956V173.644C345.335 171.652 344.471 170.452 343.175 170.452C341.867 170.452 341.003 171.652 341.003 173.644V173.956C341.003 175.948 341.867 177.148 343.175 177.148C344.471 177.148 345.335 175.948 345.335 173.956Z" fill="black"/>
<path d="M81.9237 42.006L81.4848 41.2757L82.8233 37.1669C83.1456 36.1891 83.3671 35.2999 82.8973 34.5182C82.3532 33.6132 81.427 33.4699 80.4705 34.0448C79.5449 34.6012 79.2987 35.5892 79.8922 36.5766L79.9726 36.7103L79.1087 37.2296L78.9974 37.0445C78.1813 35.6869 78.5567 34.1451 80.0069 33.2734C81.5599 32.3399 82.9781 32.6495 83.757 33.9454C84.4062 35.0253 84.1148 36.1245 83.7001 37.3679L82.6408 40.4969L86.405 38.2342L86.8811 39.0261L81.9237 42.006ZM87.5418 32.0625C88.9508 31.2155 90.5214 31.6155 91.3807 33.0451C92.339 34.6393 91.6858 36.208 90.3385 37.0179C88.734 37.9823 87.184 37.4999 86.3577 36.2885L87.2114 35.7753C87.7944 36.5589 88.836 36.8709 89.8748 36.2465C90.7182 35.7396 91.1701 34.6978 90.5024 33.5871C89.9151 32.61 88.8735 32.298 87.8758 32.8977C87.4336 33.1636 86.6233 33.8187 86.8279 34.8578L85.9824 35.338L83.7584 31.1024L88.0678 28.512L88.5438 29.3039L85.0264 31.4183L86.2281 33.7902C86.3551 32.9998 86.8732 32.4643 87.5418 32.0625Z" fill="black"/>
<path d="M265.551 37.2041C266.96 38.0508 267.344 39.6254 266.485 41.0552C265.527 42.6495 263.836 42.8089 262.488 41.9993C260.883 41.0351 260.582 39.44 261.264 38.1419L262.118 38.6548C261.699 39.5375 261.913 40.6036 262.952 41.2278C263.795 41.7346 264.927 41.6448 265.594 40.5339C266.182 39.5568 265.968 38.4906 264.971 37.8911C264.528 37.6253 263.569 37.2172 262.748 37.8856L261.927 37.3644L264.623 33.4127L268.933 36.0023L268.457 36.7943L264.94 34.6806L263.409 36.8549C264.167 36.5961 264.883 36.8023 265.551 37.2041ZM267.971 40.5479L268.169 40.2188C269.399 38.1719 271.381 37.389 273.006 38.3655C274.621 39.3359 274.861 41.4537 273.631 43.5006L273.433 43.8298C272.141 45.9795 270.221 46.6595 268.606 45.6892C266.981 44.7127 266.679 42.6977 267.971 40.5479ZM272.577 43.2736L272.738 43.0061C273.764 41.2986 273.641 39.8251 272.53 39.1576C271.409 38.4839 270.051 39.0675 269.025 40.775L268.864 41.0424C267.838 42.7499 267.96 44.2235 269.082 44.8972C270.193 45.5646 271.551 44.981 272.577 43.2736Z" fill="black"/>
<g filter="url(#filter1_di_14_32)">
<path d="M231.323 43.3905C232.665 40.385 231.321 36.8486 228.264 35.6277C207.022 27.1437 184.084 23.6544 161.228 25.4657C138.373 27.2771 116.271 34.3359 96.6301 46.06C93.8038 47.7471 93.033 51.4512 94.8318 54.2078C96.6306 56.9645 100.317 57.7288 103.15 56.0515C121.116 45.4112 141.302 39.0023 162.17 37.3485C183.038 35.6946 203.981 38.844 223.4 46.5214C226.461 47.7316 229.981 46.3961 231.323 43.3905Z" fill="#E5AE21"/>
</g>
<g filter="url(#filter2_di_14_32)">
<path d="M313.285 146.063C316.513 145.42 318.621 142.278 317.85 139.078C312.472 116.772 302.008 95.9811 287.243 78.3472C272.479 60.7132 253.851 46.7576 232.837 37.5431C229.823 36.2212 226.359 37.7439 225.159 40.8089C223.959 43.8739 225.477 47.3195 228.487 48.6518C247.641 57.1305 264.623 69.8983 278.104 85.9994C291.585 102.1 301.169 121.062 306.149 141.408C306.932 144.606 310.057 146.706 313.285 146.063Z" fill="#E65F2B"/>
</g>
<path d="M146.196 108.556V106.4H160.028V108.052L150.396 126H147.848L157.452 108.556H146.196ZM161.224 126V124.012L168.84 117.404C170.66 115.836 172.172 114.324 172.172 112.196C172.172 109.732 170.492 108.332 167.888 108.332C165.368 108.332 163.688 110.012 163.688 112.7V113.064H161.336V112.56C161.336 108.864 163.94 106.232 167.888 106.232C172.116 106.232 174.58 108.556 174.58 112.084C174.58 115.024 172.676 116.872 170.352 118.86L164.472 123.844H174.72V126H161.224ZM181.332 105.728C182.714 105.728 183.759 106.279 184.468 107.38C185.178 108.463 185.533 109.993 185.533 111.972C185.533 113.951 185.187 115.5 184.497 116.62C183.825 117.721 182.77 118.272 181.332 118.272C180.455 118.272 179.708 118.02 179.092 117.516C178.476 117.012 178.01 116.293 177.692 115.36C177.394 114.408 177.244 113.279 177.244 111.972C177.244 109.993 177.571 108.463 178.224 107.38C178.878 106.279 179.914 105.728 181.332 105.728ZM181.332 107.464C180.623 107.464 180.1 107.847 179.764 108.612C179.447 109.359 179.288 110.479 179.288 111.972C179.288 113.465 179.447 114.595 179.764 115.36C180.1 116.125 180.623 116.508 181.332 116.508C182.06 116.508 182.602 116.135 182.957 115.388C183.311 114.623 183.488 113.484 183.488 111.972C183.488 110.479 183.311 109.359 182.957 108.612C182.602 107.847 182.06 107.464 181.332 107.464ZM194.128 106.008L183.04 126H180.884L191.973 106.008H194.128ZM193.569 113.736C194.483 113.736 195.249 113.988 195.865 114.492C196.481 114.977 196.947 115.687 197.265 116.62C197.601 117.535 197.769 118.655 197.769 119.98C197.769 121.959 197.423 123.508 196.733 124.628C196.061 125.729 195.006 126.28 193.569 126.28C192.691 126.28 191.945 126.028 191.329 125.524C190.713 125.02 190.246 124.301 189.929 123.368C189.63 122.416 189.481 121.287 189.481 119.98C189.481 118.001 189.807 116.471 190.461 115.388C191.114 114.287 192.15 113.736 193.569 113.736ZM193.569 115.5C192.859 115.5 192.337 115.873 192.001 116.62C191.683 117.367 191.524 118.487 191.524 119.98C191.524 121.492 191.683 122.631 192.001 123.396C192.337 124.143 192.859 124.516 193.569 124.516C194.296 124.516 194.838 124.143 195.193 123.396C195.547 122.649 195.725 121.511 195.725 119.98C195.725 118.487 195.547 117.367 195.193 116.62C194.838 115.873 194.296 115.5 193.569 115.5Z" fill="#060606"/>
<path d="M146.196 108.556H145.946V108.806H146.196V108.556ZM146.196 106.4V106.15H145.946V106.4H146.196ZM160.028 106.4H160.278V106.15H160.028V106.4ZM160.028 108.052L160.248 108.17L160.278 108.115V108.052H160.028ZM150.396 126V126.25H150.546L150.616 126.118L150.396 126ZM147.848 126L147.629 125.879L147.425 126.25H147.848V126ZM157.452 108.556L157.671 108.677L157.875 108.306H157.452V108.556ZM146.446 108.556V106.4H145.946V108.556H146.446ZM146.196 106.65H160.028V106.15H146.196V106.65ZM159.778 106.4V108.052H160.278V106.4H159.778ZM159.808 107.934L150.176 125.882L150.616 126.118L160.248 108.17L159.808 107.934ZM150.396 125.75H147.848V126.25H150.396V125.75ZM148.067 126.121L157.671 108.677L157.233 108.435L147.629 125.879L148.067 126.121ZM157.452 108.306H146.196V108.806H157.452V108.306ZM161.224 126H160.974V126.25H161.224V126ZM161.224 124.012L161.06 123.823L160.974 123.898V124.012H161.224ZM168.84 117.404L168.677 117.215L168.676 117.215L168.84 117.404ZM163.688 113.064V113.314H163.938V113.064H163.688ZM161.336 113.064H161.086V113.314H161.336V113.064ZM170.352 118.86L170.514 119.051L170.515 119.05L170.352 118.86ZM164.472 123.844L164.31 123.653L163.791 124.094H164.472V123.844ZM174.72 123.844H174.97V123.594H174.72V123.844ZM174.72 126V126.25H174.97V126H174.72ZM161.474 126V124.012H160.974V126H161.474ZM161.388 124.201L169.004 117.593L168.676 117.215L161.06 123.823L161.388 124.201ZM169.003 117.593C170.813 116.034 172.422 114.453 172.422 112.196H171.922C171.922 114.195 170.507 115.638 168.677 117.215L169.003 117.593ZM172.422 112.196C172.422 110.904 171.979 109.865 171.172 109.153C170.369 108.444 169.233 108.082 167.888 108.082V108.582C169.147 108.582 170.153 108.92 170.841 109.527C171.525 110.131 171.922 111.024 171.922 112.196H172.422ZM167.888 108.082C166.571 108.082 165.453 108.522 164.664 109.334C163.875 110.145 163.438 111.303 163.438 112.7H163.938C163.938 111.409 164.341 110.383 165.022 109.682C165.703 108.982 166.685 108.582 167.888 108.582V108.082ZM163.438 112.7V113.064H163.938V112.7H163.438ZM163.688 112.814H161.336V113.314H163.688V112.814ZM161.586 113.064V112.56H161.086V113.064H161.586ZM161.586 112.56C161.586 110.772 162.215 109.257 163.306 108.189C164.398 107.12 165.971 106.482 167.888 106.482V105.982C165.857 105.982 164.154 106.66 162.957 107.831C161.76 109.003 161.086 110.652 161.086 112.56H161.586ZM167.888 106.482C169.958 106.482 171.566 107.05 172.653 108.021C173.737 108.99 174.33 110.381 174.33 112.084H174.83C174.83 110.259 174.191 108.724 172.986 107.649C171.785 106.576 170.047 105.982 167.888 105.982V106.482ZM174.33 112.084C174.33 114.897 172.52 116.676 170.19 118.67L170.515 119.05C172.832 117.068 174.83 115.151 174.83 112.084H174.33ZM170.19 118.669L164.31 123.653L164.634 124.035L170.514 119.051L170.19 118.669ZM164.472 124.094H174.72V123.594H164.472V124.094ZM174.47 123.844V126H174.97V123.844H174.47ZM174.72 125.75H161.224V126.25H174.72V125.75ZM184.468 107.38L184.258 107.515L184.259 107.517L184.468 107.38ZM184.497 116.62L184.284 116.489L184.283 116.49L184.497 116.62ZM179.092 117.516L178.934 117.709L179.092 117.516ZM177.692 115.36L177.454 115.435L177.456 115.44L177.692 115.36ZM178.224 107.38L178.439 107.509L178.44 107.508L178.224 107.38ZM179.764 108.612L179.536 108.511L179.534 108.514L179.764 108.612ZM179.764 115.36L179.534 115.456L179.536 115.46L179.764 115.36ZM182.957 115.388L183.182 115.495L183.183 115.493L182.957 115.388ZM182.957 108.612L182.73 108.717L182.731 108.719L182.957 108.612ZM194.128 106.008L194.347 106.129L194.553 105.758H194.128V106.008ZM183.041 126V126.25H183.188L183.259 126.121L183.041 126ZM180.884 126L180.666 125.879L180.46 126.25H180.884V126ZM191.972 106.008V105.758H191.825L191.754 105.887L191.972 106.008ZM195.865 114.492L195.706 114.686L195.71 114.688L195.865 114.492ZM197.264 116.62L197.028 116.7L197.03 116.706L197.264 116.62ZM196.733 124.628L196.52 124.497L196.519 124.498L196.733 124.628ZM191.328 125.524L191.17 125.717L191.328 125.524ZM189.929 123.368L189.69 123.443L189.692 123.448L189.929 123.368ZM190.46 115.388L190.675 115.517L190.676 115.516L190.46 115.388ZM192 116.62L191.772 116.517L191.77 116.522L192 116.62ZM192 123.396L191.769 123.492L191.773 123.499L192 123.396ZM195.193 123.396L195.418 123.503L195.193 123.396ZM195.193 116.62L195.418 116.513L195.193 116.62ZM181.333 105.978C182.634 105.978 183.598 106.49 184.258 107.515L184.679 107.245C183.92 106.067 182.793 105.478 181.333 105.478V105.978ZM184.259 107.517C184.931 108.543 185.283 110.018 185.283 111.972H185.783C185.783 109.969 185.424 108.383 184.678 107.243L184.259 107.517ZM185.283 111.972C185.283 113.926 184.941 115.423 184.284 116.489L184.709 116.751C185.434 115.577 185.783 113.975 185.783 111.972H185.283ZM184.283 116.49C183.662 117.507 182.695 118.022 181.333 118.022V118.522C182.845 118.522 183.987 117.936 184.71 116.75L184.283 116.49ZM181.333 118.022C180.507 118.022 179.818 117.786 179.251 117.323L178.934 117.709C179.599 118.254 180.404 118.522 181.333 118.522V118.022ZM179.251 117.323C178.679 116.854 178.235 116.179 177.929 115.28L177.456 115.44C177.785 116.408 178.274 117.17 178.934 117.709L179.251 117.323ZM177.931 115.285C177.642 114.364 177.494 113.261 177.494 111.972H176.994C176.994 113.297 177.146 114.452 177.454 115.435L177.931 115.285ZM177.494 111.972C177.494 110.015 177.818 108.537 178.439 107.509L178.01 107.251C177.324 108.389 176.994 109.971 176.994 111.972H177.494ZM178.44 107.508C179.042 106.491 179.991 105.978 181.333 105.978V105.478C179.837 105.478 178.713 106.066 178.009 107.252L178.44 107.508ZM181.333 107.214C180.93 107.214 180.569 107.324 180.261 107.549C179.955 107.773 179.716 108.1 179.536 108.512L179.993 108.712C180.149 108.359 180.339 108.112 180.556 107.953C180.771 107.796 181.026 107.714 181.333 107.714V107.214ZM179.534 108.514C179.197 109.308 179.038 110.469 179.038 111.972H179.538C179.538 110.489 179.697 109.409 179.995 108.71L179.534 108.514ZM179.038 111.972C179.038 113.476 179.197 114.645 179.534 115.456L179.995 115.264C179.697 114.545 179.538 113.455 179.538 111.972H179.038ZM179.536 115.46C179.716 115.872 179.955 116.199 180.261 116.423C180.569 116.648 180.93 116.758 181.333 116.758V116.258C181.026 116.258 180.771 116.176 180.556 116.019C180.339 115.86 180.149 115.613 179.993 115.26L179.536 115.46ZM181.333 116.758C181.742 116.758 182.11 116.652 182.426 116.434C182.741 116.217 182.991 115.898 183.182 115.495L182.731 115.281C182.567 115.624 182.369 115.866 182.143 116.022C181.918 116.177 181.651 116.258 181.333 116.258V116.758ZM183.183 115.493C183.561 114.678 183.738 113.496 183.738 111.972H183.238C183.238 113.472 183.061 114.567 182.73 115.283L183.183 115.493ZM183.738 111.972C183.738 110.467 183.561 109.302 183.182 108.505L182.731 108.719C183.061 109.415 183.238 110.491 183.238 111.972H183.738ZM183.183 108.507C182.993 108.095 182.744 107.769 182.429 107.547C182.112 107.323 181.743 107.214 181.333 107.214V107.714C181.65 107.714 181.916 107.797 182.14 107.955C182.367 108.115 182.566 108.363 182.73 108.717L183.183 108.507ZM193.91 105.887L182.822 125.879L183.259 126.121L194.347 106.129L193.91 105.887ZM183.041 125.75H180.884V126.25H183.041V125.75ZM181.103 126.121L192.191 106.129L191.754 105.887L180.666 125.879L181.103 126.121ZM191.972 106.258H194.128V105.758H191.972V106.258ZM193.569 113.986C194.435 113.986 195.141 114.223 195.706 114.685L196.023 114.299C195.356 113.753 194.532 113.486 193.569 113.486V113.986ZM195.71 114.688C196.279 115.137 196.722 115.801 197.028 116.7L197.501 116.54C197.172 115.572 196.682 114.818 196.019 114.296L195.71 114.688ZM197.03 116.706C197.353 117.585 197.519 118.674 197.519 119.98H198.019C198.019 118.635 197.848 117.484 197.499 116.534L197.03 116.706ZM197.519 119.98C197.519 121.934 197.177 123.431 196.52 124.497L196.945 124.759C197.67 123.585 198.019 121.983 198.019 119.98H197.519ZM196.519 124.498C195.898 125.515 194.931 126.03 193.569 126.03V126.53C195.081 126.53 196.223 125.944 196.946 124.758L196.519 124.498ZM193.569 126.03C192.743 126.03 192.054 125.794 191.487 125.331L191.17 125.717C191.835 126.262 192.64 126.53 193.569 126.53V126.03ZM191.487 125.331C190.915 124.862 190.471 124.187 190.165 123.288L189.692 123.448C190.021 124.416 190.51 125.178 191.17 125.717L191.487 125.331ZM190.167 123.293C189.878 122.372 189.73 121.269 189.73 119.98H189.23C189.23 121.305 189.382 122.46 189.69 123.443L190.167 123.293ZM189.73 119.98C189.73 118.023 190.054 116.545 190.675 115.517L190.246 115.259C189.56 116.397 189.23 117.979 189.23 119.98H189.73ZM190.676 115.516C191.278 114.499 192.227 113.986 193.569 113.986V113.486C192.073 113.486 190.949 114.074 190.245 115.26L190.676 115.516ZM193.569 115.25C193.167 115.25 192.807 115.356 192.499 115.577C192.193 115.795 191.954 116.115 191.773 116.517L192.228 116.723C192.383 116.379 192.573 116.138 192.79 115.983C193.004 115.83 193.26 115.75 193.569 115.75V115.25ZM191.77 116.522C191.433 117.316 191.274 118.477 191.274 119.98H191.774C191.774 118.497 191.933 117.417 192.231 116.718L191.77 116.522ZM191.274 119.98C191.274 121.502 191.433 122.681 191.77 123.492L192.231 123.3C191.933 122.581 191.774 121.482 191.774 119.98H191.274ZM191.773 123.499C191.954 123.901 192.193 124.221 192.499 124.439C192.807 124.66 193.167 124.766 193.569 124.766V124.266C193.26 124.266 193.004 124.186 192.79 124.033C192.573 123.878 192.383 123.637 192.228 123.293L191.773 123.499ZM193.569 124.766C193.978 124.766 194.346 124.66 194.662 124.442C194.977 124.225 195.227 123.906 195.418 123.503L194.967 123.289C194.803 123.632 194.605 123.874 194.379 124.03C194.154 124.185 193.887 124.266 193.569 124.266V124.766ZM195.418 123.503C195.797 122.705 195.975 121.521 195.975 119.98H195.475C195.475 121.5 195.297 122.593 194.967 123.289L195.418 123.503ZM195.975 119.98C195.975 118.475 195.797 117.31 195.418 116.513L194.967 116.727C195.297 117.423 195.475 118.499 195.475 119.98H195.975ZM195.418 116.513C195.227 116.11 194.977 115.791 194.662 115.574C194.346 115.356 193.978 115.25 193.569 115.25V115.75C193.887 115.75 194.154 115.831 194.379 115.986C194.605 116.142 194.803 116.384 194.967 116.727L195.418 116.513Z" fill="#060606"/>
<path d="M142.797 149.084C139.983 149.084 138.219 147.096 138.219 144.1C138.219 141.132 140.053 139.116 142.895 139.116C145.065 139.116 146.647 140.376 147.011 142.406H145.723C145.345 141.048 144.309 140.236 142.839 140.236C140.781 140.236 139.465 141.832 139.465 144.1C139.465 146.354 140.725 147.964 142.783 147.964C144.295 147.964 145.345 147.166 145.709 145.794H146.997C146.633 147.824 145.009 149.084 142.797 149.084ZM151.73 149.084C149.644 149.084 148.188 147.6 148.188 145.43C148.188 143.26 149.644 141.776 151.73 141.776C153.816 141.776 155.272 143.26 155.272 145.43C155.272 147.6 153.816 149.084 151.73 149.084ZM151.73 148.062C153.144 148.062 154.096 146.956 154.096 145.43C154.096 143.904 153.144 142.798 151.73 142.798C150.316 142.798 149.364 143.904 149.364 145.43C149.364 146.956 150.316 148.062 151.73 148.062ZM164.695 141.776C166.179 141.776 167.397 142.63 167.397 144.884V149H166.249V144.954C166.249 143.554 165.633 142.826 164.555 142.826C163.365 142.826 162.637 143.722 162.637 145.178V149H161.489V144.954C161.489 143.554 160.859 142.826 159.767 142.826C158.591 142.826 157.877 143.806 157.877 145.234V149H156.729V141.86H157.723L157.877 142.84C158.255 142.322 158.857 141.776 159.963 141.776C160.957 141.776 161.811 142.224 162.217 143.134C162.651 142.364 163.421 141.776 164.695 141.776ZM172.607 141.776C174.581 141.776 176.037 143.106 176.037 145.43C176.037 147.614 174.581 149.084 172.607 149.084C171.403 149.084 170.591 148.594 170.157 147.908V151.8H169.009V141.86H170.003L170.157 143.008C170.633 142.35 171.403 141.776 172.607 141.776ZM172.495 148.062C173.909 148.062 174.861 146.984 174.861 145.43C174.861 143.876 173.909 142.798 172.495 142.798C171.095 142.798 170.143 143.876 170.143 145.402C170.143 146.97 171.095 148.062 172.495 148.062ZM177.489 149V139.2H178.637V149H177.489ZM183.64 149.084C181.498 149.084 180.098 147.614 180.098 145.43C180.098 143.26 181.47 141.776 183.486 141.776C185.502 141.776 186.818 143.05 186.874 145.164C186.874 145.318 186.86 145.486 186.846 145.654H181.302V145.752C181.344 147.11 182.198 148.062 183.556 148.062C184.564 148.062 185.348 147.53 185.586 146.606H186.748C186.468 148.034 185.292 149.084 183.64 149.084ZM181.372 144.702H185.642C185.53 143.47 184.69 142.784 183.5 142.784C182.45 142.784 181.484 143.54 181.372 144.702ZM188.774 147.138V142.91H187.486V141.86H188.774V139.858H189.922V141.86H191.77V142.91H189.922V147.124C189.922 147.726 190.132 147.95 190.748 147.95H191.882V149H190.636C189.264 149 188.774 148.398 188.774 147.138ZM196.129 149.084C193.987 149.084 192.587 147.614 192.587 145.43C192.587 143.26 193.959 141.776 195.975 141.776C197.991 141.776 199.307 143.05 199.363 145.164C199.363 145.318 199.349 145.486 199.335 145.654H193.791V145.752C193.833 147.11 194.687 148.062 196.045 148.062C197.053 148.062 197.837 147.53 198.075 146.606H199.237C198.957 148.034 197.781 149.084 196.129 149.084ZM193.861 144.702H198.131C198.019 143.47 197.179 142.784 195.989 142.784C194.939 142.784 193.973 143.54 193.861 144.702ZM206.441 142.952V139.2H207.589V149H206.595L206.441 147.852C205.965 148.51 205.195 149.084 203.991 149.084C202.017 149.084 200.561 147.754 200.561 145.43C200.561 143.246 202.017 141.776 203.991 141.776C205.195 141.776 206.007 142.266 206.441 142.952ZM204.103 148.062C205.503 148.062 206.455 146.984 206.455 145.458C206.455 143.89 205.503 142.798 204.103 142.798C202.689 142.798 201.737 143.876 201.737 145.43C201.737 146.984 202.689 148.062 204.103 148.062Z" fill="#9A9A9A"/>
<defs>
<filter id="filter0_i_14_32" x="24.1165" y="47.6039" width="77.4807" height="129.349" filterUnits="userSpaceOnUse" color-interpolation-filters="sRGB">
<feFlood flood-opacity="0" result="BackgroundImageFix"/>
<feBlend mode="normal" in="SourceGraphic" in2="BackgroundImageFix" result="shape"/>
<feColorMatrix in="SourceAlpha" type="matrix" values="0 0 0 0 0 0 0 0 0 0 0 0 0 0 0 0 0 0 127 0" result="hardAlpha"/>
<feOffset dy="3"/>
<feGaussianBlur stdDeviation="2"/>
<feComposite in2="hardAlpha" operator="arithmetic" k2="-1" k3="1"/>
<feColorMatrix type="matrix" values="0 0 0 0 1 0 0 0 0 1 0 0 0 0 1 0 0 0 0.45 0"/>
<feBlend mode="normal" in2="shape" result="effect1_innerShadow_14_32"/>
</filter>
<filter id="filter1_di_14_32" x="87.8641" y="21" width="145.978" height="39.9348" filterUnits="userSpaceOnUse" color-interpolation-filters="sRGB">
<feFlood flood-opacity="0" result="BackgroundImageFix"/>
<feColorMatrix in="SourceAlpha" type="matrix" values="0 0 0 0 0 0 0 0 0 0 0 0 0 0 0 0 0 0 127 0" result="hardAlpha"/>
<feOffset dx="-2"/>
<feGaussianBlur stdDeviation="2"/>
<feComposite in2="hardAlpha" operator="out"/>
<feColorMatrix type="matrix" values="0 0 0 0 1 0 0 0 0 1 0 0 0 0 1 0 0 0 0.13 0"/>
<feBlend mode="normal" in2="BackgroundImageFix" result="effect1_dropShadow_14_32"/>
<feBlend mode="normal" in="SourceGraphic" in2="effect1_dropShadow_14_32" result="shape"/>
<feColorMatrix in="SourceAlpha" type="matrix" values="0 0 0 0 0 0 0 0 0 0 0 0 0 0 0 0 0 0 127 0" result="hardAlpha"/>
<feOffset dy="3"/>
<feGaussianBlur stdDeviation="2"/>
<feComposite in2="hardAlpha" operator="arithmetic" k2="-1" k3="1"/>
<feColorMatrix type="matrix" values="0 0 0 0 1 0 0 0 0 1 0 0 0 0 1 0 0 0 0.25 0"/>
<feBlend mode="normal" in2="shape" result="effect2_innerShadow_14_32"/>
</filter>
<filter id="filter2_di_14_32" x="218.747" y="33.0645" width="101.262" height="117.114" filterUnits="userSpaceOnUse" color-interpolation-filters="sRGB">
<feFlood flood-opacity="0" result="BackgroundImageFix"/>
<feColorMatrix in="SourceAlpha" type="matrix" values="0 0 0 0 0 0 0 0 0 0 0 0 0 0 0 0 0 0 127 0" result="hardAlpha"/>
<feOffset dx="-2"/>
<feGaussianBlur stdDeviation="2"/>
<feComposite in2="hardAlpha" operator="out"/>
<feColorMatrix type="matrix" values="0 0 0 0 1 0 0 0 0 1 0 0 0 0 1 0 0 0 0.13 0"/>
<feBlend mode="normal" in2="BackgroundImageFix" result="effect1_dropShadow_14_32"/>
<feBlend mode="normal" in="SourceGraphic" in2="effect1_dropShadow_14_32" result="shape"/>
<feColorMatrix in="SourceAlpha" type="matrix" values="0 0 0 0 0 0 0 0 0 0 0 0 0 0 0 0 0 0 127 0" result="hardAlpha"/>
<feOffset dy="3"/>
<feGaussianBlur stdDeviation="2"/>
<feComposite in2="hardAlpha" operator="arithmetic" k2="-1" k3="1"/>
<feColorMatrix type="matrix" values="0 0 0 0 1 0 0 0 0 1 0 0 0 0 1 0 0 0 0.25 0"/>
<feBlend mode="normal" in2="shape" result="effect2_innerShadow_14_32"/>
</filter>
</defs>
</svg>
