<svg width="60" height="60" viewBox="0 0 60 60" fill="none" xmlns="http://www.w3.org/2000/svg">
<g filter="url(#filter0_d_4_32)">
<rect x="6" y="2" width="48" height="48" rx="24" fill="white" shape-rendering="crispEdges"/>
<path fill-rule="evenodd" clip-rule="evenodd" d="M23.8308 23.1675C23.8308 19.7536 26.6045 16.98 30.0183 16.98C33.423 16.98 36.2058 19.7628 36.2058 23.1675V25.8167C36.2058 26.0136 36.2504 26.3019 36.3349 26.6099C36.4184 26.9142 36.5261 27.1847 36.6243 27.3564L37.6754 29.1021C38.5055 30.4856 37.8419 32.2878 36.3127 32.7941C32.2207 34.161 27.8057 34.1609 23.7138 32.7937L23.7113 32.7929C22.9391 32.5315 22.3599 31.9911 22.101 31.2919C21.8418 30.5918 21.93 29.8038 22.3526 29.1014L23.4053 27.353C23.4055 27.3526 23.4058 27.3522 23.406 27.3518C23.5064 27.183 23.6163 26.9136 23.7012 26.6079C23.7863 26.3013 23.8308 26.0134 23.8308 25.8167V23.1675ZM30.0183 18.355C27.3639 18.355 25.2058 20.513 25.2058 23.1675V25.8167C25.2058 26.1791 25.1312 26.5971 25.0261 26.9757C24.9209 27.3545 24.77 27.7491 24.5864 28.057L24.5848 28.0596L23.5308 29.8103C23.5307 29.8103 23.5308 29.8102 23.5308 29.8103C23.3026 30.1895 23.2899 30.5429 23.3905 30.8144C23.4912 31.0865 23.7322 31.348 24.1509 31.49C27.9599 32.7624 32.069 32.7622 35.878 31.4896L35.8801 31.4889C36.5682 31.2614 36.8759 30.4429 36.4966 29.81C36.4965 29.8099 36.4967 29.8102 36.4966 29.81L35.4361 28.0486C35.26 27.7434 35.1125 27.3515 35.0089 26.9736C34.9054 26.5964 34.8308 26.1789 34.8308 25.8167V23.1675C34.8308 20.5222 32.6636 18.355 30.0183 18.355Z" fill="white"/>
<path fill-rule="evenodd" clip-rule="evenodd" d="M27.6824 17.6825C28.0486 16.7481 28.9576 16.0908 30.0183 16.0908C31.0791 16.0908 31.9881 16.7481 32.3543 17.6825C32.4499 17.9264 32.3985 18.2034 32.2219 18.3969C32.0453 18.5903 31.7741 18.6666 31.5225 18.5936C31.2682 18.5197 31.0116 18.464 30.7514 18.4325L30.7489 18.4322C29.9565 18.3331 29.2078 18.3919 28.5144 18.5935C28.2628 18.6666 27.9915 18.5904 27.8149 18.397C27.6382 18.2035 27.5868 17.9264 27.6824 17.6825Z" fill="white"/>
<path fill-rule="evenodd" clip-rule="evenodd" d="M27.9558 32.4717C27.9558 33.0331 28.1894 33.5571 28.5611 33.9289C28.9329 34.3006 29.4569 34.5342 30.0183 34.5342C31.1511 34.5342 32.0808 33.6045 32.0808 32.4717H33.4558C33.4558 34.3639 31.9105 35.9092 30.0183 35.9092C29.0765 35.9092 28.2071 35.5194 27.5889 34.9011C26.9706 34.2829 26.5808 33.4135 26.5808 32.4717H27.9558Z" fill="white"/>
</g>
<defs>
<filter id="filter0_d_4_32" x="0" y="0" width="60" height="60" filterUnits="userSpaceOnUse" color-interpolation-filters="sRGB">
<feFlood flood-opacity="0" result="BackgroundImageFix"/>
<feColorMatrix in="SourceAlpha" type="matrix" values="0 0 0 0 0 0 0 0 0 0 0 0 0 0 0 0 0 0 127 0" result="hardAlpha"/>
<feOffset dy="4"/>
<feGaussianBlur stdDeviation="3"/>
<feComposite in2="hardAlpha" operator="out"/>
<feColorMatrix type="matrix" values="0 0 0 0 0 0 0 0 0 0 0 0 0 0 0 0 0 0 0.02 0"/>
<feBlend mode="normal" in2="BackgroundImageFix" result="effect1_dropShadow_4_32"/>
<feBlend mode="normal" in="SourceGraphic" in2="effect1_dropShadow_4_32" result="shape"/>
</filter>
</defs>
</svg>
