<svg width="22" height="22" viewBox="0 0 22 22" fill="none" xmlns="http://www.w3.org/2000/svg">
<path fill-rule="evenodd" clip-rule="evenodd" d="M13.0347 2.0347C13.6674 1.40196 14.5607 1.14583 15.5833 1.14583H17.4167C18.4393 1.14583 19.3326 1.40196 19.9653 2.0347C20.598 2.66743 20.8542 3.56069 20.8542 4.58333V6.41667C20.8542 7.43931 20.598 8.33256 19.9653 8.9653C19.3326 9.59804 18.4393 9.85417 17.4167 9.85417H15.5833C14.5607 9.85417 13.6674 9.59804 13.0347 8.9653C12.402 8.33256 12.1458 7.43931 12.1458 6.41667V4.58333C12.1458 3.56069 12.402 2.66743 13.0347 2.0347ZM14.007 3.00697C13.723 3.2909 13.5208 3.77264 13.5208 4.58333V6.41667C13.5208 7.22736 13.723 7.7091 14.007 7.99303C14.2909 8.27696 14.7726 8.47917 15.5833 8.47917H17.4167C18.2274 8.47917 18.7091 8.27696 18.993 7.99303C19.277 7.7091 19.4792 7.22736 19.4792 6.41667V4.58333C19.4792 3.77264 19.277 3.2909 18.993 3.00697C18.7091 2.72304 18.2274 2.52083 17.4167 2.52083H15.5833C14.7726 2.52083 14.2909 2.72304 14.007 3.00697Z" fill="#284791"/>
<path fill-rule="evenodd" clip-rule="evenodd" d="M2.0347 13.0347C2.66744 12.402 3.56069 12.1458 4.58333 12.1458H6.41667C7.43931 12.1458 8.33257 12.402 8.9653 13.0347C9.59804 13.6674 9.85417 14.5607 9.85417 15.5833V17.4167C9.85417 18.4393 9.59804 19.3326 8.9653 19.9653C8.33257 20.598 7.43931 20.8542 6.41667 20.8542H4.58333C3.56069 20.8542 2.66744 20.598 2.0347 19.9653C1.40196 19.3326 1.14583 18.4393 1.14583 17.4167V15.5833C1.14583 14.5607 1.40196 13.6674 2.0347 13.0347ZM3.00697 14.007C2.72304 14.2909 2.52083 14.7726 2.52083 15.5833V17.4167C2.52083 18.2274 2.72304 18.7091 3.00697 18.993C3.2909 19.277 3.77264 19.4792 4.58333 19.4792H6.41667C7.22736 19.4792 7.7091 19.277 7.99303 18.993C8.27696 18.7091 8.47917 18.2274 8.47917 17.4167V15.5833C8.47917 14.7726 8.27696 14.2909 7.99303 14.007C7.7091 13.723 7.22736 13.5208 6.41667 13.5208H4.58333C3.77264 13.5208 3.2909 13.723 3.00697 14.007Z" fill="#284791"/>
<path fill-rule="evenodd" clip-rule="evenodd" d="M5.5 2.52083C3.85465 2.52083 2.52083 3.85465 2.52083 5.5C2.52083 7.14535 3.85465 8.47917 5.5 8.47917C7.14535 8.47917 8.47917 7.14535 8.47917 5.5C8.47917 3.85465 7.14535 2.52083 5.5 2.52083ZM1.14583 5.5C1.14583 3.09526 3.09526 1.14583 5.5 1.14583C7.90474 1.14583 9.85417 3.09526 9.85417 5.5C9.85417 7.90474 7.90474 9.85417 5.5 9.85417C3.09526 9.85417 1.14583 7.90474 1.14583 5.5Z" fill="#284791"/>
<path fill-rule="evenodd" clip-rule="evenodd" d="M16.5 13.5208C14.8547 13.5208 13.5208 14.8547 13.5208 16.5C13.5208 18.1453 14.8547 19.4792 16.5 19.4792C18.1453 19.4792 19.4792 18.1453 19.4792 16.5C19.4792 14.8547 18.1453 13.5208 16.5 13.5208ZM12.1458 16.5C12.1458 14.0953 14.0953 12.1458 16.5 12.1458C18.9047 12.1458 20.8542 14.0953 20.8542 16.5C20.8542 18.9047 18.9047 20.8542 16.5 20.8542C14.0953 20.8542 12.1458 18.9047 12.1458 16.5Z" fill="#284791"/>
</svg>
