<svg width="22" height="22" viewBox="0 0 22 22" fill="none" xmlns="http://www.w3.org/2000/svg">
<path fill-rule="evenodd" clip-rule="evenodd" d="M9.39583 17.875C9.39583 17.4953 9.70364 17.1875 10.0833 17.1875H19.25C19.6297 17.1875 19.9375 17.4953 19.9375 17.875C19.9375 18.2547 19.6297 18.5625 19.25 18.5625H10.0833C9.70364 18.5625 9.39583 18.2547 9.39583 17.875Z" fill="#F1F1F1"/>
<path fill-rule="evenodd" clip-rule="evenodd" d="M9.39583 11.4583C9.39583 11.0786 9.70364 10.7708 10.0833 10.7708H19.25C19.6297 10.7708 19.9375 11.0786 19.9375 11.4583C19.9375 11.838 19.6297 12.1458 19.25 12.1458H10.0833C9.70364 12.1458 9.39583 11.838 9.39583 11.4583Z" fill="#F1F1F1"/>
<path fill-rule="evenodd" clip-rule="evenodd" d="M9.39583 5.04167C9.39583 4.66197 9.70364 4.35417 10.0833 4.35417H19.25C19.6297 4.35417 19.9375 4.66197 19.9375 5.04167C19.9375 5.42136 19.6297 5.72917 19.25 5.72917H10.0833C9.70364 5.72917 9.39583 5.42136 9.39583 5.04167Z" fill="#F1F1F1"/>
<path fill-rule="evenodd" clip-rule="evenodd" d="M6.9028 2.7222C7.17129 2.99068 7.17129 3.42598 6.9028 3.69447L4.1528 6.44447C3.88432 6.71295 3.44902 6.71295 3.18053 6.44447L2.26386 5.5278C1.99538 5.25932 1.99538 4.82402 2.26386 4.55553C2.53235 4.28704 2.96765 4.28704 3.23614 4.55553L3.66667 4.98606L5.93053 2.7222C6.19902 2.45371 6.63432 2.45371 6.9028 2.7222Z" fill="#F1F1F1"/>
<path fill-rule="evenodd" clip-rule="evenodd" d="M6.9028 9.13886C7.17129 9.40735 7.17129 9.84265 6.9028 10.1111L4.1528 12.8611C3.88432 13.1296 3.44902 13.1296 3.18053 12.8611L2.26386 11.9445C1.99538 11.676 1.99538 11.2407 2.26386 10.9722C2.53235 10.7037 2.96765 10.7037 3.23614 10.9722L3.66667 11.4027L5.93053 9.13886C6.19902 8.87038 6.63432 8.87038 6.9028 9.13886Z" fill="#F1F1F1"/>
<path fill-rule="evenodd" clip-rule="evenodd" d="M6.9028 15.5555C7.17129 15.824 7.17129 16.2593 6.9028 16.5278L4.1528 19.2778C3.88432 19.5463 3.44902 19.5463 3.18053 19.2778L2.26386 18.3611C1.99538 18.0927 1.99538 17.6574 2.26386 17.3889C2.53235 17.1204 2.96765 17.1204 3.23614 17.3889L3.66667 17.8194L5.93053 15.5555C6.19902 15.287 6.63432 15.287 6.9028 15.5555Z" fill="#F1F1F1"/>
</svg>
