<svg width="190" height="107" viewBox="0 0 190 107" fill="none" xmlns="http://www.w3.org/2000/svg">
<g filter="url(#filter0_d_3_67)">
<path d="M10.0664 13.7891V28.6719C10.0664 29.3229 10.4049 29.6615 11.082 29.6875H24.7539C25.2487 29.6615 25.6784 29.4531 26.043 29.0625C26.4076 28.6458 26.668 28.1771 26.8242 27.6562C27.0065 27.1094 27.0977 26.5625 27.0977 26.0156C27.0977 25.4948 27.0065 24.974 26.8242 24.4531C26.668 23.9062 26.4076 23.4375 26.043 23.0469C25.6784 22.6302 25.2487 22.4219 24.7539 22.4219H14.7539C14.0247 22.4219 13.3997 22.1745 12.8789 21.6797C12.3841 21.1589 12.1367 20.5339 12.1367 19.8047C12.1367 19.0755 12.3971 18.4635 12.918 17.9688C13.4128 17.4479 14.0247 17.1875 14.7539 17.1875H24.5977C26.4206 17.2135 27.918 17.7344 29.0898 18.75C30.2878 19.7396 31.1341 20.8724 31.6289 22.1484C32.1497 23.3984 32.4102 24.7005 32.4102 26.0547C32.4102 27.3568 32.1497 28.6458 31.6289 29.9219C31.1081 31.1719 30.2617 32.3047 29.0898 33.3203C27.918 34.3099 26.1862 34.8438 23.8945 34.9219H7.48828C6.75911 34.9219 6.13411 34.6875 5.61328 34.2188C5.09245 33.724 4.81901 33.112 4.79297 32.3828V13.7891C4.79297 13.0599 5.05339 12.4609 5.57422 11.9922C6.12109 11.4974 6.75911 11.25 7.48828 11.25C9.05078 11.3802 9.91016 12.2266 10.0664 13.7891ZM44.7148 34.9219C42.4232 34.8438 40.6914 34.3099 39.5195 33.3203C38.3477 32.3047 37.5013 31.1719 36.9805 29.9219C36.4596 28.6458 36.1992 27.3568 36.1992 26.0547C36.1992 24.7005 36.4466 23.3984 36.9414 22.1484C37.4622 20.8724 38.3086 19.7396 39.4805 18.75C40.6784 17.7344 42.1888 17.2135 44.0117 17.1875H56.668C58.4909 17.2135 59.9883 17.7344 61.1602 18.75C62.3581 19.7396 63.2044 20.8724 63.6992 22.1484C64.2201 23.3984 64.4805 24.7005 64.4805 26.0547C64.4805 27.3568 64.2201 28.6458 63.6992 29.9219C63.1784 31.1719 62.332 32.3047 61.1602 33.3203C59.9883 34.3099 58.2565 34.8438 55.9648 34.9219H44.7148ZM43.8555 22.4219C43.3607 22.4219 42.931 22.6302 42.5664 23.0469C42.2018 23.4375 41.9284 23.9062 41.7461 24.4531C41.5898 24.974 41.5117 25.4948 41.5117 26.0156C41.5117 26.5625 41.5898 27.1094 41.7461 27.6562C41.9284 28.1771 42.2018 28.6458 42.5664 29.0625C42.931 29.4531 43.3607 29.6615 43.8555 29.6875H56.8242C57.319 29.6615 57.7487 29.4531 58.1133 29.0625C58.4779 28.6458 58.7383 28.1771 58.8945 27.6562C59.0768 27.1094 59.168 26.5625 59.168 26.0156C59.168 25.4948 59.0768 24.974 58.8945 24.4531C58.7383 23.9062 58.4779 23.4375 58.1133 23.0469C57.7487 22.6302 57.319 22.4219 56.8242 22.4219H43.8555ZM77.0586 34.9219C74.7669 34.8438 73.0352 34.3099 71.8633 33.3203C70.6914 32.3047 69.8451 31.1719 69.3242 29.9219C68.8034 28.6458 68.543 27.3568 68.543 26.0547C68.543 24.7005 68.7904 23.3984 69.2852 22.1484C69.806 20.8724 70.6523 19.7396 71.8242 18.75C73.0221 17.7344 74.5326 17.2135 76.3555 17.1875H89.0117C90.8346 17.2135 92.332 17.7344 93.5039 18.75C94.7018 19.7396 95.5482 20.8724 96.043 22.1484C96.5638 23.3984 96.8242 24.7005 96.8242 26.0547C96.8242 27.3568 96.5638 28.6458 96.043 29.9219C95.5221 31.1719 94.6758 32.3047 93.5039 33.3203C92.332 34.3099 90.6003 34.8438 88.3086 34.9219H77.0586ZM76.1992 22.4219C75.7044 22.4219 75.2747 22.6302 74.9102 23.0469C74.5456 23.4375 74.2721 23.9062 74.0898 24.4531C73.9336 24.974 73.8555 25.4948 73.8555 26.0156C73.8555 26.5625 73.9336 27.1094 74.0898 27.6562C74.2721 28.1771 74.5456 28.6458 74.9102 29.0625C75.2747 29.4531 75.7044 29.6615 76.1992 29.6875H89.168C89.6628 29.6615 90.0924 29.4531 90.457 29.0625C90.8216 28.6458 91.082 28.1771 91.2383 27.6562C91.4206 27.1094 91.5117 26.5625 91.5117 26.0156C91.5117 25.4948 91.4206 24.974 91.2383 24.4531C91.082 23.9062 90.8216 23.4375 90.457 23.0469C90.0924 22.6302 89.6628 22.4219 89.168 22.4219H76.1992ZM104.012 11.25C104.715 11.276 105.314 11.5365 105.809 12.0312C106.303 12.5 106.564 13.0859 106.59 13.7891V32.9297C106.434 34.4922 105.574 35.3385 104.012 35.4688C103.283 35.4688 102.645 35.2344 102.098 34.7656C101.577 34.2708 101.316 33.6589 101.316 32.9297V13.7891C101.342 13.0599 101.616 12.4609 102.137 11.9922C102.658 11.4974 103.283 11.25 104.012 11.25ZM108.973 22.1484C109.728 20.9245 111.173 20.026 113.309 19.4531L123.348 16.7578C124.051 16.5495 124.715 16.6146 125.34 16.9531C125.991 17.2656 126.421 17.7734 126.629 18.4766C126.863 19.1536 126.811 19.8177 126.473 20.4688C126.16 21.0938 125.652 21.5234 124.949 21.7578L114.246 24.5312C113.491 24.8177 113.126 25.3125 113.152 26.0156C113.126 26.7188 113.491 27.2135 114.246 27.5L124.949 30.2734C125.652 30.5078 126.16 30.9505 126.473 31.6016C126.811 32.2266 126.863 32.8776 126.629 33.5547C126.421 34.2578 125.991 34.7656 125.34 35.0781C124.715 35.4167 124.051 35.4818 123.348 35.2734L113.309 32.5781C111.147 31.9792 109.689 31.0677 108.934 29.8438C108.204 28.6198 107.84 27.3438 107.84 26.0156C107.84 24.6875 108.217 23.3984 108.973 22.1484ZM138.855 34.9219C136.564 34.8438 134.832 34.3099 133.66 33.3203C132.488 32.3047 131.642 31.1719 131.121 29.9219C130.6 28.6458 130.34 27.3568 130.34 26.0547C130.34 24.7005 130.587 23.3984 131.082 22.1484C131.603 20.8724 132.449 19.7396 133.621 18.75C134.819 17.7344 136.329 17.2135 138.152 17.1875H152.996C153.725 17.1875 154.337 17.4349 154.832 17.9297C155.353 18.3984 155.613 18.9714 155.613 19.6484C155.613 20.3516 155.353 20.9505 154.832 21.4453C154.337 21.9141 153.725 22.1484 152.996 22.1484H138.387C137.814 22.1484 137.306 22.3438 136.863 22.7344C136.447 23.125 136.134 23.6328 135.926 24.2578C135.743 24.8828 135.652 25.4948 135.652 26.0938C135.652 26.7448 135.743 27.3828 135.926 28.0078C136.134 28.6328 136.447 29.1406 136.863 29.5312C137.306 29.8958 137.814 30.0911 138.387 30.1172H152.996C153.725 30.1172 154.337 30.3516 154.832 30.8203C155.353 31.2891 155.613 31.849 155.613 32.5C155.613 33.1771 155.353 33.75 154.832 34.2188C154.337 34.6875 153.725 34.9219 152.996 34.9219H138.855ZM155.145 25.9766C155.145 26.4714 154.923 26.901 154.48 27.2656C154.09 27.6042 153.595 27.7734 152.996 27.7734H140.223C139.624 27.7734 139.116 27.6042 138.699 27.2656C138.283 26.901 138.074 26.4714 138.074 25.9766C138.074 25.5078 138.283 25.0911 138.699 24.7266C139.116 24.388 139.624 24.2188 140.223 24.2188H152.996C153.595 24.2188 154.103 24.401 154.52 24.7656C154.936 25.1042 155.145 25.5078 155.145 25.9766ZM160.926 22.1094C161.421 20.8594 162.254 19.7396 163.426 18.75C164.624 17.7344 166.134 17.2135 167.957 17.1875H182.645C183.374 17.1875 183.986 17.4479 184.48 17.9688C185.001 18.4635 185.262 19.0755 185.262 19.8047C185.262 20.5339 185.001 21.1589 184.48 21.6797C183.986 22.1745 183.374 22.4219 182.645 22.4219H167.801C167.306 22.4219 166.876 22.6302 166.512 23.0469C166.147 23.4375 165.861 23.9062 165.652 24.4531C165.47 25 165.379 25.5208 165.379 26.0156V32.8516C165.223 34.4141 164.363 35.2604 162.801 35.3906C162.072 35.3906 161.434 35.1562 160.887 34.6875C160.366 34.1927 160.105 33.5807 160.105 32.8516V26.0547H160.145C160.145 24.7005 160.405 23.3854 160.926 22.1094Z" fill="#C4912F"/>
<path d="M36.625 75.0074C37.2188 76.2574 37.5156 77.5231 37.5156 78.8043C37.5156 80.0543 37.2031 81.3043 36.5781 82.5543C35.9531 83.7731 34.9375 84.8668 33.5312 85.8356C32.125 86.7731 30.3281 87.2418 28.1406 87.2418H27.8594C27.6719 87.2731 27.4844 87.2887 27.2969 87.2887H8.45312C7.60938 87.2574 6.89062 86.9606 6.29688 86.3981C5.73438 85.8043 5.4375 85.0856 5.40625 84.2418V62.7731C5.4375 61.9293 5.73438 61.2262 6.29688 60.6637C6.89062 60.0699 7.60938 59.7574 8.45312 59.7262H24.5781C24.7656 59.7262 24.9531 59.7418 25.1406 59.7731H25.4219C27.6094 59.8356 29.4062 60.3356 30.8125 61.2731C32.2188 62.2106 33.2344 63.2887 33.8594 64.5074C34.4844 65.6949 34.7969 66.8981 34.7969 68.1168C34.7969 69.3668 34.5 70.5856 33.9062 71.7731C33.875 71.8356 33.8438 71.8824 33.8125 71.9137C35.0938 72.8199 36.0312 73.8512 36.625 75.0074ZM28.4219 81.0074C29.0156 81.0387 29.5 80.9293 29.875 80.6793C30.2812 80.4293 30.5781 80.1481 30.7656 79.8356C30.9531 79.4918 31.0469 79.1481 31.0469 78.8043C31.0469 78.5856 30.9531 78.2887 30.7656 77.9137C30.5781 77.5074 30.2812 77.1793 29.875 76.9293C29.5 76.6793 29.0156 76.5387 28.4219 76.5074H25.4219H11.7344V79.7418C11.7344 80.5856 12.1719 81.0074 13.0469 81.0074H13.4219H28.4219ZM27.2031 69.8043C27.5781 69.5856 27.8594 69.3356 28.0469 69.0543C28.2344 68.7418 28.3281 68.4293 28.3281 68.1168C28.3281 67.8043 28.2344 67.5074 28.0469 67.2262C27.8594 66.9137 27.5625 66.6481 27.1562 66.4293C26.7812 66.1793 26.2969 66.0387 25.7031 66.0074H13.0469C12.1719 66.0074 11.7344 66.4293 11.7344 67.2731V70.2262H25.7031C26.2969 70.1949 26.7969 70.0543 27.2031 69.8043ZM57.2969 88.1793C55.6719 88.1793 54.0625 87.9918 52.4688 87.6168C50.9062 87.2418 49.4062 86.6949 47.9688 85.9762C46.5312 85.2262 45.2656 84.2418 44.1719 83.0231C43.0781 81.8043 42.4844 80.3512 42.3906 78.6637V76.6949V68.6793C42.3906 67.8043 42.7031 67.0856 43.3281 66.5231C43.9844 65.9293 44.75 65.6324 45.625 65.6324C47.5 65.7887 48.5156 66.8043 48.6719 68.6793V70.7418V77.2106C48.7344 78.1793 49.0938 78.9918 49.75 79.6481C50.4375 80.2731 51.1875 80.7731 52 81.1481C52.8438 81.5231 53.7031 81.8043 54.5781 81.9918C55.4844 82.1793 56.3906 82.2731 57.2969 82.2731C58.2031 82.2731 59.0938 82.1793 59.9688 81.9918C60.875 81.8043 61.7344 81.5231 62.5469 81.1481C63.3906 80.7731 64.1406 80.2731 64.7969 79.6481C65.4844 78.9918 65.8594 78.1793 65.9219 77.2106V70.7418V68.6793C65.9219 67.8043 66.2344 67.0856 66.8594 66.5231C67.5156 65.9293 68.2812 65.6324 69.1562 65.6324C71.0312 65.7887 72.0625 66.8043 72.25 68.6793V76.6949V78.6637C72.1562 80.3512 71.5469 81.8043 70.4219 83.0231C69.3281 84.2418 68.0625 85.2262 66.625 85.9762C65.1875 86.6949 63.6719 87.2418 62.0781 87.6168C60.5156 87.9918 58.9219 88.1793 57.2969 88.1793ZM104.359 62.0231C104.547 60.1481 105.578 59.1324 107.453 58.9762C108.328 58.9762 109.078 59.2731 109.703 59.8668C110.359 60.4293 110.688 61.1481 110.688 62.0231V84.3356C110.656 85.2106 110.328 85.9449 109.703 86.5387C109.078 87.1012 108.328 87.3824 107.453 87.3824H87.7656C85.0156 87.2887 82.9375 86.6481 81.5312 85.4606C80.125 84.2418 79.1094 82.8824 78.4844 81.3824C77.8594 79.8512 77.5469 78.3043 77.5469 76.7418C77.5469 75.1168 77.8438 73.5543 78.4375 72.0543C79.0625 70.5231 80.0781 69.1637 81.4844 67.9762C82.9219 66.7574 84.7344 66.1324 86.9219 66.1012H98.7344C99.6094 66.1012 100.344 66.4137 100.938 67.0387C101.562 67.6324 101.875 68.3668 101.875 69.2418C101.875 70.1168 101.562 70.8668 100.938 71.4918C100.344 72.0856 99.6094 72.3824 98.7344 72.3824H86.7344C86.1406 72.3824 85.625 72.6324 85.1875 73.1324C84.75 73.6012 84.4219 74.1637 84.2031 74.8199C84.0156 75.4449 83.9219 76.0699 83.9219 76.6949C83.9219 77.3512 84.0156 78.0074 84.2031 78.6637C84.4219 79.2887 84.75 79.8512 85.1875 80.3512C85.625 80.8199 86.1406 81.0699 86.7344 81.1012H103.141C103.953 81.0699 104.359 80.6637 104.359 79.8824V62.0231ZM142.984 62.0231C143.172 60.1481 144.203 59.1324 146.078 58.9762C146.953 58.9762 147.703 59.2731 148.328 59.8668C148.984 60.4293 149.312 61.1481 149.312 62.0231V84.3356C149.281 85.2106 148.953 85.9449 148.328 86.5387C147.703 87.1012 146.953 87.3824 146.078 87.3824H126.391C123.641 87.2887 121.562 86.6481 120.156 85.4606C118.75 84.2418 117.734 82.8824 117.109 81.3824C116.484 79.8512 116.172 78.3043 116.172 76.7418C116.172 75.1168 116.469 73.5543 117.062 72.0543C117.688 70.5231 118.703 69.1637 120.109 67.9762C121.547 66.7574 123.359 66.1324 125.547 66.1012H137.359C138.234 66.1012 138.969 66.4137 139.562 67.0387C140.188 67.6324 140.5 68.3668 140.5 69.2418C140.5 70.1168 140.188 70.8668 139.562 71.4918C138.969 72.0856 138.234 72.3824 137.359 72.3824H125.359C124.766 72.3824 124.25 72.6324 123.812 73.1324C123.375 73.6012 123.047 74.1637 122.828 74.8199C122.641 75.4449 122.547 76.0699 122.547 76.6949C122.547 77.3512 122.641 78.0074 122.828 78.6637C123.047 79.2887 123.375 79.8512 123.812 80.3512C124.25 80.8199 124.766 81.0699 125.359 81.1012H141.766C142.578 81.0699 142.984 80.6637 142.984 79.8824V62.0231ZM158.641 65.5387C159.516 65.5387 160.266 65.8356 160.891 66.4293C161.516 66.9918 161.844 67.7106 161.875 68.5856V73.3199C161.844 74.6012 161.922 75.7887 162.109 76.8824C162.328 77.9449 162.828 78.8981 163.609 79.7418C164.391 80.5856 165.375 81.0387 166.562 81.1012H179.078V68.6793C179.078 67.8043 179.391 67.0856 180.016 66.5231C180.672 65.9293 181.438 65.6324 182.312 65.6324C184.188 65.7887 185.219 66.8043 185.406 68.6793V83.9606C185.406 86.4606 185.062 88.8199 184.375 91.0387C183.75 93.0074 182.719 94.6637 181.281 96.0074C179.875 97.3824 178.078 98.1324 175.891 98.2574H159.672C158.828 98.2262 158.109 97.9137 157.516 97.3199C156.953 96.7574 156.656 96.0543 156.625 95.2106C156.625 94.3356 156.906 93.5856 157.469 92.9606C158.062 92.3356 158.797 92.0074 159.672 91.9762H174.297C175.484 91.9137 176.469 91.4606 177.25 90.6168C178.031 89.7731 178.531 88.7887 178.75 87.6637C178.781 87.5699 178.797 87.4762 178.797 87.3824H164.969C162.781 87.2574 160.969 86.5231 159.531 85.1793C158.125 83.8043 157.109 82.1324 156.484 80.1637C155.891 78.1949 155.578 76.1012 155.547 73.8824V68.5856C155.578 67.7418 155.891 67.0387 156.484 66.4762C157.078 65.8824 157.797 65.5699 158.641 65.5387Z" fill="#4CB9B2"/>
</g>
<defs>
<filter id="filter0_d_3_67" x="-2" y="0" width="195" height="107.167" filterUnits="userSpaceOnUse" color-interpolation-filters="sRGB">
<feFlood flood-opacity="0" result="BackgroundImageFix"/>
<feColorMatrix in="SourceAlpha" type="matrix" values="0 0 0 0 0 0 0 0 0 0 0 0 0 0 0 0 0 0 127 0" result="hardAlpha"/>
<feOffset dy="4"/>
<feGaussianBlur stdDeviation="2"/>
<feComposite in2="hardAlpha" operator="out"/>
<feColorMatrix type="matrix" values="0 0 0 0 0 0 0 0 0 0 0 0 0 0 0 0 0 0 0.25 0"/>
<feBlend mode="normal" in2="BackgroundImageFix" result="effect1_dropShadow_3_67"/>
<feBlend mode="normal" in="SourceGraphic" in2="effect1_dropShadow_3_67" result="shape"/>
</filter>
</defs>
</svg>
